<svg xmlns="http://www.w3.org/2000/svg" viewBox="0 0 353 750" role="img" aria-labelledby="equilibrium-e5-scrutiny-levels-title equilibrium-e5-scrutiny-levels-description" class="eq-chart" data-chart="E5" font-family="'Gill Sans', 'Gill Sans MT', Seravek, Candara, 'Noto Sans', 'Segoe UI', system-ui, sans-serif" font-variant-numeric="tabular-nums">
  <title id="equilibrium-e5-scrutiny-levels-title">Three levels of scrutiny: garden, bot fork, and upstream</title>
  <desc id="equilibrium-e5-scrutiny-levels-description">Four small panels compare the garden, the bot fork, and upstream. A garden job and a bot-fork job cost about the same nine cents; the difference lies in retries and in human review rounds; the upstream path has the fewest records and the longest wait. Missing measures are empty slots labeled not recorded.</desc>
  <defs><pattern id="equilibrium-e5-scrutiny-levels-hatch-fresh" width="6" height="6" patternUnits="userSpaceOnUse" patternTransform="rotate(45)"><rect width="6" height="6" fill="#B8CF9B"/><path d="M1.2-1V7" stroke="#FBF8F0" stroke-width="1.8" opacity="0.72"/><path d="M4.2-1V7" stroke="#E8D8B9" stroke-width="0.8" opacity="0.9"/></pattern><pattern id="equilibrium-e5-scrutiny-levels-hatch-moss" width="6" height="6" patternUnits="userSpaceOnUse" patternTransform="rotate(45)"><rect width="6" height="6" fill="#627A57"/><path d="M1.2-1V7" stroke="#FBF8F0" stroke-width="1.8" opacity="0.72"/><path d="M4.2-1V7" stroke="#E8D8B9" stroke-width="0.8" opacity="0.9"/></pattern></defs>
  <g aria-hidden="true">
    <path d="M2 21V7Q2 2 7 2H48M351 21V7Q351 2 346 2H305M2 729V743Q2 748 7 748H48M351 729V743Q351 748 346 748H305" fill="none" class="eq-outline" stroke="#6A6253" stroke-width="1.2" stroke-linecap="round" stroke-linejoin="round"/>
    <path d="M35 8H318M35 742H318" fill="none" stroke="#E6CF7A" stroke-width="1.8" stroke-linecap="round"/>
    <path d="M5 19Q13 5 35 8M348 19Q340 5 318 8M5 731Q13 737 35 742M348 731Q340 737 318 742" fill="none" stroke="#627A57" stroke-width="2" stroke-linecap="round"/>
    <path d="M18 10C14 4 9 5 8 11C12 14 16 13 18 10ZM335 10C339 4 344 5 345 11C341 14 337 13 335 10ZM18 740C14 746 9 745 8 739C12 736 16 737 18 740ZM335 740C339 746 344 745 345 739C341 736 337 737 335 740Z" fill="#9CAF88" class="eq-outline" stroke="#6A6253" stroke-width="0.9" stroke-linecap="round" stroke-linejoin="round"/>
    <path d="M176.5 3L181 8L176.5 13L172 8Z" fill="#E6CF7A" class="eq-outline" stroke="#6A6253" stroke-width="0.9" stroke-linecap="round" stroke-linejoin="round"/>
    <circle cx="176.5" cy="742" r="3.8" fill="#E6CF7A" class="eq-outline" stroke="#6A6253" stroke-width="0.9" stroke-linecap="round" stroke-linejoin="round"/>
  </g>
  <g transform="translate(0 24)"><text x="0" y="16" font-size="13" font-weight="600" letter-spacing="0.18" fill="currentColor">Three levels of scrutiny</text><rect x="0" y="28" width="14" height="12" fill="#B8CF9B" stroke="#627A57" stroke-width="2"/><text x="19" y="38" font-size="12" fill="currentColor">Garden</text><rect x="84" y="28" width="14" height="12" fill="#627A57" class="eq-outline" stroke="#6A6253" stroke-width="1.5" stroke-linecap="round" stroke-linejoin="round"/><text x="103" y="38" font-size="12" fill="currentColor">Bot fork</text><rect x="170" y="28" width="14" height="12" fill="#B9ACCC" class="eq-outline" stroke="#6A6253" stroke-width="1.5" stroke-linecap="round" stroke-linejoin="round"/><text x="189" y="38" font-size="12" fill="currentColor">Upstream</text><path d="M0 56L353 56" fill="none" class="eq-grid" stroke="#DDD5C4" stroke-width="1"/><text x="0" y="72" font-size="12" font-weight="600" fill="currentColor">Allocated machine $ per job, median (p90) ·</text><text x="0" y="88" font-size="12" font-weight="600" fill="currentColor">derived</text><text x="0" y="116" font-size="12" fill="currentColor">Garden</text><path d="M66 103L66 121" fill="none" stroke="currentColor" stroke-width="1.15" stroke-linecap="round"/><path d="M89.97 112L166.85 112" fill="none" class="eq-outline" stroke="#6A6253" stroke-width="2" stroke-linecap="round" stroke-linejoin="round"/><path d="M166.85 107L166.85 117" fill="none" class="eq-outline" stroke="#6A6253" stroke-width="2" stroke-linecap="round" stroke-linejoin="round"/><rect x="66" y="106" width="23.97" height="12" fill="url(#equilibrium-e5-scrutiny-levels-hatch-fresh)" stroke="#627A57" stroke-width="2"/><text x="192" y="110" font-size="12" font-weight="600" fill="currentColor">$0.090 ($0.378)</text><text x="192" y="124" font-size="12" fill="currentColor">n = 671</text><text x="0" y="150" font-size="12" fill="currentColor">Bot fork</text><path d="M66 137L66 155" fill="none" stroke="currentColor" stroke-width="1.15" stroke-linecap="round"/><path d="M89.84 146L180.19 146" fill="none" class="eq-outline" stroke="#6A6253" stroke-width="2" stroke-linecap="round" stroke-linejoin="round"/><path d="M180.19 141L180.19 151" fill="none" class="eq-outline" stroke="#6A6253" stroke-width="2" stroke-linecap="round" stroke-linejoin="round"/><rect x="66" y="140" width="23.84" height="12" fill="url(#equilibrium-e5-scrutiny-levels-hatch-moss)" class="eq-outline" stroke="#6A6253" stroke-width="1.5" stroke-linecap="round" stroke-linejoin="round"/><text x="192" y="144" font-size="12" font-weight="600" fill="currentColor">$0.089 ($0.428)</text><text x="192" y="158" font-size="12" fill="currentColor">n = 3,033</text><text x="0" y="184" font-size="12" fill="currentColor">Upstream</text><rect x="66" y="173" width="120" height="14" fill="none" class="eq-outline" stroke="#6A6253" stroke-width="1" stroke-linecap="round" stroke-linejoin="round"/><text x="126" y="184" font-size="12" text-anchor="middle" font-style="italic" fill="currentColor">not recorded</text><path d="M0 204L353 204" fill="none" class="eq-grid" stroke="#DDD5C4" stroke-width="1"/><text x="0" y="220" font-size="12" font-weight="600" fill="currentColor">Attempts ending in requeue · observed</text><text x="0" y="248" font-size="12" fill="currentColor">Garden</text><path d="M66 235L66 253" fill="none" stroke="currentColor" stroke-width="1.15" stroke-linecap="round"/><rect x="66" y="238" width="25.03" height="12" fill="#B8CF9B" stroke="#627A57" stroke-width="2"/><text x="192" y="242" font-size="12" font-weight="600" fill="currentColor">21%</text><text x="192" y="256" font-size="12" fill="currentColor">287 of 1,376</text><text x="0" y="282" font-size="12" fill="currentColor">Bot fork</text><path d="M66 269L66 287" fill="none" stroke="currentColor" stroke-width="1.15" stroke-linecap="round"/><rect x="66" y="272" width="44.18" height="12" fill="#627A57" class="eq-outline" stroke="#6A6253" stroke-width="1.5" stroke-linecap="round" stroke-linejoin="round"/><text x="192" y="276" font-size="12" font-weight="600" fill="currentColor">37%</text><text x="192" y="290" font-size="12" fill="currentColor">2,606 of 7,079</text><text x="0" y="316" font-size="12" fill="currentColor">Upstream</text><rect x="66" y="305" width="120" height="14" fill="none" class="eq-outline" stroke="#6A6253" stroke-width="1" stroke-linecap="round" stroke-linejoin="round"/><text x="126" y="316" font-size="12" text-anchor="middle" font-style="italic" fill="currentColor">not recorded</text><path d="M0 336L353 336" fill="none" class="eq-grid" stroke="#DDD5C4" stroke-width="1"/><text x="0" y="352" font-size="12" font-weight="600" fill="currentColor">Human review rounds per merged change, median</text><text x="0" y="368" font-size="12" font-weight="600" fill="currentColor">(mean) · observed</text><text x="0" y="396" font-size="12" fill="currentColor">Garden</text><text x="66" y="396" font-size="12" font-style="italic" fill="currentColor">no rounds (direct push)</text><text x="0" y="430" font-size="12" fill="currentColor">Bot fork</text><path d="M66 417L66 435" fill="none" stroke="currentColor" stroke-width="1.15" stroke-linecap="round"/><rect x="66" y="420" width="80" height="12" fill="#627A57" class="eq-outline" stroke="#6A6253" stroke-width="1.5" stroke-linecap="round" stroke-linejoin="round"/><path d="M162.8 420.8L168 426L162.8 431.2L157.6 426Z" fill="none" class="eq-outline" stroke="#6A6253" stroke-width="1.5" stroke-linecap="round" stroke-linejoin="round"/><text x="192" y="424" font-size="12" font-weight="600" fill="currentColor">2 (2.42)</text><text x="192" y="438" font-size="12" fill="currentColor">n = 296</text><text x="0" y="464" font-size="12" fill="currentColor">Upstream</text><path d="M66 451L66 469" fill="none" stroke="currentColor" stroke-width="1.15" stroke-linecap="round"/><rect x="66" y="454" width="40" height="12" fill="#B9ACCC" class="eq-outline" stroke="#6A6253" stroke-width="1.5" stroke-linecap="round" stroke-linejoin="round"/><path d="M146 454.8L151.2 460L146 465.2L140.8 460Z" fill="none" class="eq-outline" stroke="#6A6253" stroke-width="1.5" stroke-linecap="round" stroke-linejoin="round"/><text x="192" y="458" font-size="12" font-weight="600" fill="currentColor">1 (2.0)</text><text x="192" y="472" font-size="12" fill="currentColor">n = 19</text><path d="M0 484L353 484" fill="none" class="eq-grid" stroke="#DDD5C4" stroke-width="1"/><text x="0" y="500" font-size="12" font-weight="600" fill="currentColor">Opened → merged, median · observed</text><text x="0" y="528" font-size="12" fill="currentColor">Garden</text><text x="66" y="528" font-size="12" font-style="italic" fill="currentColor">lands on push</text><text x="0" y="562" font-size="12" fill="currentColor">Bot fork</text><path d="M66 549L66 567" fill="none" stroke="currentColor" stroke-width="1.15" stroke-linecap="round"/><rect x="66" y="552" width="59.9" height="12" fill="#627A57" class="eq-outline" stroke="#6A6253" stroke-width="1.5" stroke-linecap="round" stroke-linejoin="round"/><text x="192" y="556" font-size="12" font-weight="600" fill="currentColor">59.9 h</text><text x="192" y="570" font-size="12" fill="currentColor">n = 296</text><text x="0" y="596" font-size="12" fill="currentColor">Upstream</text><path d="M66 583L66 601" fill="none" stroke="currentColor" stroke-width="1.15" stroke-linecap="round"/><rect x="66" y="586" width="118.4" height="12" fill="#B9ACCC" class="eq-outline" stroke="#6A6253" stroke-width="1.5" stroke-linecap="round" stroke-linejoin="round"/><text x="192" y="590" font-size="12" font-weight="600" fill="currentColor">118.4 h</text><text x="192" y="604" font-size="12" fill="currentColor">n = 14</text><path d="M0 616L353 616" fill="none" class="eq-grid" stroke="#DDD5C4" stroke-width="1"/><text x="0" y="632" font-size="12" fill="currentColor">Mean as an open diamond. Empty slot: not recorded.</text><text x="0" y="654" font-size="12" fill="currentColor">Repair-named jobs (self-heal, fu-self-heal, fix-,</text><text x="0" y="670" font-size="12" fill="currentColor">fu-fix- prefixes), observed proxy, Garden: Jul 93</text><text x="0" y="686" font-size="12" fill="currentColor">of 339; Aug 46 of 286; Sep 106 of 597. Bot fork:</text><text x="0" y="702" font-size="12" fill="currentColor">not computed. Upstream: not recorded.</text></g>
</svg>
