<svg xmlns="http://www.w3.org/2000/svg" viewBox="0 0 353 466" role="img" aria-labelledby="equilibrium-e4-review-latency-title equilibrium-e4-review-latency-description" class="eq-chart" data-chart="E4" font-family="'Gill Sans', 'Gill Sans MT', Seravek, Candara, 'Noto Sans', 'Segoe UI', system-ui, sans-serif" font-variant-numeric="tabular-nums">
  <title id="equilibrium-e4-review-latency-title">How long each kind of review takes</title>
  <desc id="equilibrium-e4-review-latency-description">Five ranges on a log time scale from one minute to sixty days. Machine review steps take minutes; the first human review takes about a day; merging takes two and a half days on the bot fork and about five days upstream, with long tails.</desc>
  <g aria-hidden="true">
    <path d="M2 21V7Q2 2 7 2H48M351 21V7Q351 2 346 2H305M2 445V459Q2 464 7 464H48M351 445V459Q351 464 346 464H305" fill="none" class="eq-outline" stroke="#6A6253" stroke-width="1.2" stroke-linecap="round" stroke-linejoin="round"/>
    <path d="M35 8H318M35 458H318" fill="none" stroke="#E6CF7A" stroke-width="1.8" stroke-linecap="round"/>
    <path d="M5 19Q13 5 35 8M348 19Q340 5 318 8M5 447Q13 453 35 458M348 447Q340 453 318 458" fill="none" stroke="#627A57" stroke-width="2" stroke-linecap="round"/>
    <path d="M18 10C14 4 9 5 8 11C12 14 16 13 18 10ZM335 10C339 4 344 5 345 11C341 14 337 13 335 10ZM18 456C14 462 9 461 8 455C12 452 16 453 18 456ZM335 456C339 462 344 461 345 455C341 452 337 453 335 456Z" fill="#9CAF88" class="eq-outline" stroke="#6A6253" stroke-width="0.9" stroke-linecap="round" stroke-linejoin="round"/>
    <path d="M176.5 3L181 8L176.5 13L172 8Z" fill="#E6CF7A" class="eq-outline" stroke="#6A6253" stroke-width="0.9" stroke-linecap="round" stroke-linejoin="round"/>
    <circle cx="176.5" cy="458" r="3.8" fill="#E6CF7A" class="eq-outline" stroke="#6A6253" stroke-width="0.9" stroke-linecap="round" stroke-linejoin="round"/>
  </g>
  <g transform="translate(0 24)"><text x="0" y="16" font-size="13" font-weight="600" letter-spacing="0.18" fill="currentColor">Waiting time by kind of review (log scale)</text><circle cx="6" cy="34" r="5" fill="#627A57" class="eq-outline" stroke="#6A6253" stroke-width="1.5" stroke-linecap="round" stroke-linejoin="round"/><text x="16" y="38" font-size="12" fill="currentColor">machine</text><rect x="85" y="29" width="10" height="10" fill="#C98267" class="eq-outline" stroke="#6A6253" stroke-width="1.5" stroke-linecap="round" stroke-linejoin="round"/><text x="100" y="38" font-size="12" fill="currentColor">human</text><path d="M164 27.5L170.5 34L164 40.5L157.5 34Z" fill="#B9ACCC" class="eq-outline" stroke="#6A6253" stroke-width="1.5" stroke-linecap="round" stroke-linejoin="round"/><text x="176" y="38" font-size="12" fill="currentColor">upstream human</text><path d="M22 50L22 382" fill="none" class="eq-grid" stroke="#DDD5C4" stroke-width="1"/><path d="M84.59 50L84.59 382" fill="none" class="eq-grid" stroke="#DDD5C4" stroke-width="1"/><path d="M133.3 50L133.3 382" fill="none" class="eq-grid" stroke="#DDD5C4" stroke-width="1"/><path d="M219.7 50L219.7 382" fill="none" class="eq-grid" stroke="#DDD5C4" stroke-width="1"/><path d="M272.6 50L272.6 382" fill="none" class="eq-grid" stroke="#DDD5C4" stroke-width="1"/><path d="M312.16 50L312.16 382" fill="none" class="eq-grid" stroke="#DDD5C4" stroke-width="1"/><path d="M75.16 76L75.16 354" fill="none" class="eq-grid" stroke="#DDD5C4" stroke-width="1" stroke-dasharray="2 2"/><path d="M220.03 192L220.03 354" fill="none" class="eq-grid" stroke="#DDD5C4" stroke-width="1" stroke-dasharray="2 2"/><text x="0" y="62" font-size="12" fill="currentColor">Gauntlet panel stage (event duration), n = 628</text><rect x="66.47" y="71" width="21.97" height="10" rx="5" fill="#627A57" opacity="0.6" class="eq-outline" stroke="#6A6253" stroke-width="1.5" stroke-linecap="round" stroke-linejoin="round"/><circle cx="75.16" cy="76" r="6" fill="#627A57" class="eq-outline" stroke="#6A6253" stroke-width="1.5" stroke-linecap="round" stroke-linejoin="round"/><text x="0" y="96" font-size="12" fill="currentColor">p25 308 s · median 424 s · p75 691 s</text><text x="0" y="120" font-size="12" fill="currentColor">Gauntlet fix stage (event duration), n = 549</text><rect x="44.44" y="129" width="68.78" height="10" rx="5" fill="#627A57" opacity="0.6" class="eq-outline" stroke="#6A6253" stroke-width="1.5" stroke-linecap="round" stroke-linejoin="round"/><circle cx="95.16" cy="134" r="6" fill="#627A57" class="eq-outline" stroke="#6A6253" stroke-width="1.5" stroke-linecap="round" stroke-linejoin="round"/><text x="0" y="154" font-size="12" fill="currentColor">p25 137 s · median 885 s · p75 1,720 s</text><text x="0" y="178" font-size="12" fill="currentColor">Bot PR opened → first human review, n = 272</text><rect x="163.17" y="187" width="96.91" height="10" rx="5" fill="#C98267" opacity="0.6" class="eq-outline" stroke="#6A6253" stroke-width="1.5" stroke-linecap="round" stroke-linejoin="round"/><rect x="214.03" y="186" width="12" height="12" fill="#C98267" class="eq-outline" stroke="#6A6253" stroke-width="1.5" stroke-linecap="round" stroke-linejoin="round"/><text x="0" y="212" font-size="12" fill="currentColor">p25 3.0 h · median 24.3 h · p75 106 h</text><text x="0" y="236" font-size="12" fill="currentColor">Bot PR opened → merged, n = 296</text><rect x="207.28" y="245" width="87.14" height="10" rx="5" fill="#C98267" opacity="0.6" class="eq-outline" stroke="#6A6253" stroke-width="1.5" stroke-linecap="round" stroke-linejoin="round"/><rect x="238.56" y="244" width="12" height="12" fill="#C98267" class="eq-outline" stroke="#6A6253" stroke-width="1.5" stroke-linecap="round" stroke-linejoin="round"/><text x="0" y="270" font-size="12" fill="currentColor">p25 15.2 h · median 59.9 h · p75 375 h</text><text x="0" y="294" font-size="12" fill="currentColor">Ferried PR opened → merged, upstream, n = 14</text><rect x="220.26" y="303" width="68.92" height="10" rx="5" fill="#B9ACCC" opacity="0.6" class="eq-outline" stroke="#6A6253" stroke-width="1.5" stroke-linecap="round" stroke-linejoin="round"/><path d="M263.08 300.2L270.88 308L263.08 315.8L255.28 308Z" fill="#B9ACCC" class="eq-outline" stroke="#6A6253" stroke-width="1.5" stroke-linecap="round" stroke-linejoin="round"/><text x="0" y="328" font-size="12" fill="currentColor">p25 24.5 h · median 118.4 h · p75 309.2 h</text><path d="M75.16 354L220.03 354" fill="none" class="eq-outline" stroke="#6A6253" stroke-width="1.5" stroke-linecap="round" stroke-linejoin="round"/><path d="M75.16 349L75.16 359" fill="none" class="eq-outline" stroke="#6A6253" stroke-width="1.5" stroke-linecap="round" stroke-linejoin="round"/><path d="M220.03 349L220.03 359" fill="none" class="eq-outline" stroke="#6A6253" stroke-width="1.5" stroke-linecap="round" stroke-linejoin="round"/><text x="147.6" y="372" font-size="12" text-anchor="middle" font-weight="600" fill="currentColor">over two orders of magnitude</text><text x="147.6" y="348" font-size="12" text-anchor="middle" fill="currentColor">panel median → first human review median</text><path d="M22 382L331 382" fill="none" stroke="currentColor" stroke-width="1.15" stroke-linecap="round"/><path d="M22 382L22 386" fill="none" stroke="currentColor" stroke-width="1.15" stroke-linecap="round"/><text x="22" y="399" font-size="12" text-anchor="middle" fill="currentColor">1 min</text><path d="M84.59 382L84.59 386" fill="none" stroke="currentColor" stroke-width="1.15" stroke-linecap="round"/><path d="M133.3 382L133.3 386" fill="none" stroke="currentColor" stroke-width="1.15" stroke-linecap="round"/><text x="133.3" y="399" font-size="12" text-anchor="middle" fill="currentColor">1 h</text><path d="M219.7 382L219.7 386" fill="none" stroke="currentColor" stroke-width="1.15" stroke-linecap="round"/><text x="219.7" y="399" font-size="12" text-anchor="middle" fill="currentColor">1 day</text><path d="M272.6 382L272.6 386" fill="none" stroke="currentColor" stroke-width="1.15" stroke-linecap="round"/><path d="M312.16 382L312.16 386" fill="none" stroke="currentColor" stroke-width="1.15" stroke-linecap="round"/><text x="312.16" y="399" font-size="12" text-anchor="middle" fill="currentColor">1 month</text><text x="0" y="418" font-size="12" fill="currentColor">Bar: p25 to p75. Mark: median. All observed.</text></g>
</svg>
