<svg xmlns="http://www.w3.org/2000/svg" viewBox="0 0 900 600" role="img" aria-labelledby="illumination-ch2-shared-garden-title illumination-ch2-shared-garden-description">
  <title id="illumination-ch2-shared-garden-title">The machinery beneath one shared garden</title>
  <desc id="illumination-ch2-shared-garden-description">Gardeners work in separate beds and sheds while underground channels converge on one bound journal.</desc>
  <rect x="10" y="10" width="880" height="580" rx="20" fill="#FBF8F0" stroke="#6A6253" stroke-width="5"/>
  <rect x="24" y="24" width="852" height="552" rx="14" fill="none" stroke="#E6CF7A" stroke-width="3"/>
  <path d="M28 92Q70 28 132 35M872 92Q830 28 768 35M28 508Q70 572 132 565M872 508Q830 572 768 565" fill="none" stroke="#627A57" stroke-width="5" stroke-linecap="round"/>
  
  <path d="M0 0C-16-18-35-13-43 6C-21 12-7 9 0 0Z" fill="#9CAF88" transform="translate(82 45) rotate(-18) scale(0.65)"/>
  <path d="M0 0C-16-18-35-13-43 6C-21 12-7 9 0 0Z" fill="#B8CF9B" transform="translate(818 45) rotate(198) scale(0.65)"/>
  <path d="M0 0C-16-18-35-13-43 6C-21 12-7 9 0 0Z" fill="#B8CF9B" transform="translate(82 555) rotate(18) scale(0.65)"/>
  <path d="M0 0C-16-18-35-13-43 6C-21 12-7 9 0 0Z" fill="#9CAF88" transform="translate(818 555) rotate(162) scale(0.65)"/>
      <path d="M55 330H845V515H55Z" fill="#A98569" fill-opacity="0.45" stroke="#6A6253" stroke-width="5"/>
      <path d="M55 330H845" stroke="#627A57" stroke-width="11"/>
      
  <g stroke="#6A6253" stroke-width="4" stroke-linejoin="round">
    <path d="M95 290l150 -16l0 48l-150 16Z" fill="#9CAF88"/>
    <path d="M95 290l150 -16" fill="none" stroke="#E8D8B9"/>
  </g>
  <g stroke="#6A6253" stroke-width="4" stroke-linejoin="round">
    <path d="M375 290l150 -16l0 48l-150 16Z" fill="#B8CF9B"/>
    <path d="M375 290l150 -16" fill="none" stroke="#E8D8B9"/>
  </g>
  <g stroke="#6A6253" stroke-width="4" stroke-linejoin="round">
    <path d="M655 290l150 -16l0 48l-150 16Z" fill="#9CAF88"/>
    <path d="M655 290l150 -16" fill="none" stroke="#E8D8B9"/>
  </g>
      
  <g transform="translate(170 245) scale(0.55)" stroke="#6A6253" stroke-width="4" stroke-linecap="round" stroke-linejoin="round">
    <circle cx="0" cy="-34" r="11" fill="#E6CF7A"/>
    <path d="M-16-18L0-26L17-16L13 28H-13Z" fill="#C98267"/>
    <path d="M-10 28L-16 58M10 28L18 58" fill="none"/>
    <path d="M16-5L34 17M30 13L40 3" fill="none"/>
  </g>
  <g transform="translate(450 245) scale(0.55)" stroke="#6A6253" stroke-width="4" stroke-linecap="round" stroke-linejoin="round">
    <circle cx="0" cy="-34" r="11" fill="#E6CF7A"/>
    <path d="M-16-18L0-26L17-16L13 28H-13Z" fill="#B9ACCC"/>
    <path d="M-10 28L-16 58M10 28L18 58" fill="none"/>
    <path d="M16-5L34 17M30 13L40 3" fill="none"/>
  </g>
  <g transform="translate(730 245) scale(0.55)" stroke="#6A6253" stroke-width="4" stroke-linecap="round" stroke-linejoin="round">
    <circle cx="0" cy="-34" r="11" fill="#E6CF7A"/>
    <path d="M-16-18L0-26L17-16L13 28H-13Z" fill="#D8A6A6"/>
    <path d="M-10 28L-16 58M10 28L18 58" fill="none"/>
    <path d="M16-5L34 17M30 13L40 3" fill="none"/>
  </g>
      <g fill="#E8D8B9" stroke="#6A6253" stroke-width="4"><path d="M80 280V180L140 135L200 180V280Z"/><path d="M360 280V180L420 135L480 180V280Z"/><path d="M640 280V180L700 135L760 180V280Z"/></g>
      <g fill="none" stroke="#E6CF7A" stroke-width="8" stroke-linecap="round"><path d="M170 350C180 430 300 405 400 468"/><path d="M450 350V468"/><path d="M730 350C720 430 600 405 500 468"/></g>
      
  <g stroke="#6A6253" stroke-width="4" stroke-linejoin="round">
    <path d="M390 438Q420 426 450 446V508Q420 490 390 503Z" fill="#FBF8F0"/>
    <path d="M510 438Q480 426 450 446V508Q480 490 510 503Z" fill="#FBF8F0"/>
  </g>
      <g transform="translate(450 100)" fill="#E6CF7A" stroke="#6A6253" stroke-width="3"><path d="M0-38V38M-38 0H38M-27-27L27 27M27-27L-27 27"/><circle r="13" fill="#FBF8F0"/></g>
</svg>
